HIERARCHY
ROOT hip
{
	OFFSET 0.000000 0.000000 0.000000 
	CHANNELS 6 Xposition Yposition Zposition Xrotation Zrotation Yrotation
	JOINT abdomen
	{
		OFFSET 0.000000 3.402643 0.000000 
		CHANNELS 3 Xrotation Zrotation Yrotation
		JOINT chest
		{
			OFFSET 0.000000 8.438565 -0.680529 
			CHANNELS 3 Xrotation Zrotation Yrotation
			JOINT neck
			{
				OFFSET 0.000000 9.885400 -0.272212 
				CHANNELS 3 Xrotation Zrotation Yrotation
				JOINT head
				{
					OFFSET 0.000000 3.130431 0.000000 
					CHANNELS 3 Xrotation Zrotation Yrotation
					End Site
					{
						OFFSET 0.000000 3.039250 0.000000 
					}
				}
			}
			JOINT lCollar
			{
				OFFSET 3.238290 6.669187 -0.816635 
				CHANNELS 3 Yrotation Zrotation Xrotation
				JOINT lShldr
				{
					OFFSET 2.515050 0.000000 0.000000 
					CHANNELS 3 Zrotation Yrotation Xrotation
					JOINT lForeArm
					{
						OFFSET 11.517700 0.000000 0.000000 
						CHANNELS 3 Yrotation Zrotation Xrotation
						JOINT lHand
						{
							OFFSET 9.026700 0.000000 0.000000 
							CHANNELS 3 Zrotation Yrotation Xrotation
							End Site
							{
								OFFSET 4.028470 0.000000 0.000000 
							}
						}
					}
				}
			}
			JOINT rCollar
			{
				OFFSET -3.238290 6.669187 -0.816635 
				CHANNELS 3 Yrotation Zrotation Xrotation
				JOINT rShldr
				{
					OFFSET -2.515050 0.000000 0.000000 
					CHANNELS 3 Zrotation Yrotation Xrotation
					JOINT rForeArm
					{
						OFFSET -11.517700 0.000000 0.000000 
						CHANNELS 3 Yrotation Zrotation Xrotation
						JOINT rHand
						{
							OFFSET -9.026700 0.000000 0.000000 
							CHANNELS 3 Zrotation Yrotation Xrotation
							End Site
							{
								OFFSET -4.028470 0.000000 0.000000 
							}
						}
					}
				}
			}
		}
	}
	JOINT lThigh
	{
		OFFSET 4.983750 -1.633274 1.361059 
		CHANNELS 3 Xrotation Zrotation Yrotation
		JOINT lShin
		{
			OFFSET -2.041588 -20.007561 0.000000 
			CHANNELS 3 Xrotation Zrotation Yrotation
			JOINT lFoot
			{
				OFFSET 0.000000 -19.190928 -1.224953 
				CHANNELS 3 Xrotation Yrotation Zrotation
				End Site
				{
					OFFSET 0.000000 -2.449906 4.627600 
				}
			}
		}
	}
	JOINT rThigh
	{
		OFFSET -4.983750 -1.633274 1.361059 
		CHANNELS 3 Xrotation Zrotation Yrotation
		JOINT rShin
		{
			OFFSET 2.041588 -20.007561 0.000000 
			CHANNELS 3 Xrotation Zrotation Yrotation
			JOINT rFoot
			{
				OFFSET 0.000000 -19.190928 -1.224953 
				CHANNELS 3 Xrotation Yrotation Zrotation
				End Site
				{
					OFFSET 0.000000 -2.449906 4.627600 
				}
			}
		}
	}
}
MOTION
Frames: 11
Frame Time: 0.047668
0.000000 43.930737 0.000000 10.354100 -3.717930 -3.462450 -13.019160 0.650447 1.336924 -5.579640 0.278763 0.572967 14.085400 12.339100 -15.073000 12.184000 7.862660 -7.437900 2.000000 -2.000000 0.020256 -92.257896 7.346970 136.306000 13.574400 -0.347745 0.032150 0.071820 0.089367 -103.073997 -2.000000 2.000000 0.020256 93.898804 -7.737800 136.421005 -20.244400 0.343118 0.047310 -0.100596 -0.102892 -92.322304 -0.926777 6.294055 -44.694294 -0.835671 4.283246 -0.184376 -27.655151 54.513897 23.172785 -6.846001 7.335265 21.295973 0.435775 -0.550169 -0.474117 -2.776308 -19.750162 -3.027981 
-0.000811 43.940735 0.094640 10.783300 -4.346010 -3.122390 -12.922349 1.556334 0.111401 -5.538150 0.667000 0.047743 14.154000 12.144300 -13.716300 12.103700 8.241630 -6.858490 2.000000 -2.000000 0.000000 -93.889503 8.070220 136.645996 14.424000 -0.347254 0.034117 0.069055 0.075332 -104.890999 -2.000000 2.000000 0.000000 92.114197 -7.857590 137.904999 -19.150600 0.343998 0.044853 -0.101328 -0.103630 -91.951202 -1.264841 7.025753 -44.859974 -1.074265 4.290401 -0.204410 -25.947668 55.010563 21.928644 -6.543063 8.299903 24.257650 -0.160829 -0.616554 -0.326551 -2.959406 -23.055271 -3.067775 
0.012214 43.935471 0.105378 10.746600 -4.509680 -3.160070 -12.957840 1.596100 0.043842 -5.553360 0.684043 0.018789 14.505500 11.883700 -13.635300 12.219200 8.113330 -6.830310 2.000000 -2.000000 0.000000 -93.968903 8.315690 137.408005 14.648600 -0.347120 0.034635 0.067851 0.073376 -105.710999 -2.000000 2.000000 0.000000 92.065598 -7.799340 138.100998 -19.121300 0.344021 0.044787 -0.101077 -0.103378 -92.078102 -1.178109 7.187366 -44.917938 -1.052659 4.285568 -0.213505 -25.975168 55.173748 21.989857 -6.494553 8.370534 23.836239 -0.261620 -0.545726 -0.350866 -2.858046 -22.611849 -3.066732 
0.019715 43.929844 0.114376 10.659800 -4.606960 -3.317660 -12.951468 1.570580 0.084250 -5.550630 0.673106 0.036107 14.835500 11.930200 -13.253600 12.318700 8.149790 -6.654700 2.000000 -2.000000 0.000000 -93.987396 8.256000 136.783005 14.492400 -0.347214 0.034275 0.068622 0.074635 -105.183998 -2.000000 2.000000 0.000000 92.084900 -7.779530 137.944000 -19.121300 0.344021 0.044787 -0.101328 -0.103630 -91.951202 -0.962520 7.292709 -44.861179 -1.124228 4.307957 -0.204788 -26.276546 55.149712 22.242826 -6.404419 8.551510 23.761667 -0.162838 -0.616047 -0.336425 -2.830137 -22.467234 -2.946280 
0.028325 43.925350 0.105863 10.680900 -4.702630 -3.425160 -12.787951 1.524209 0.051900 -5.480551 0.653233 0.022243 15.106600 12.084900 -13.046400 12.487900 8.213590 -6.552860 2.000000 -2.000000 0.000000 -94.055397 8.040820 136.587997 14.502100 -0.347208 0.034297 0.068867 0.075031 -105.017998 -2.000000 2.000000 0.000000 92.055603 -7.750250 137.953995 -19.248301 0.343921 0.045073 -0.101232 -0.103533 -92.000000 -0.923403 7.401174 -44.928696 -1.102652 4.313402 -0.214158 -26.963249 55.104897 22.797449 -6.400817 8.649152 23.712036 -0.234981 -0.590456 -0.339237 -2.647879 -22.333967 -2.875365 
0.031649 43.921124 0.086463 10.692800 -4.836820 -3.558670 -12.816229 1.529837 0.073125 -5.492670 0.655645 0.031340 15.051500 11.978000 -12.848000 12.418000 8.176540 -6.451080 2.000000 -2.000000 0.000000 -94.104797 8.129270 136.910004 14.570500 -0.347167 0.034455 0.068650 0.074682 -105.164001 -2.000000 2.000000 0.000000 92.006699 -7.740430 137.925003 -19.150600 0.343998 0.044853 -0.101193 -0.103494 -92.019501 -0.935606 7.567824 -44.737659 -1.110710 4.311434 -0.204439 -26.956366 55.035034 22.791412 -6.464651 8.765571 23.322412 -0.231306 -0.560144 -0.359334 -2.484078 -21.895807 -2.814926 
0.033865 43.919575 0.069208 10.685200 -4.971330 -3.564410 -12.769051 1.533429 0.029577 -5.472450 0.657184 0.012676 15.551900 11.777000 -12.798700 12.622100 8.046230 -6.421180 2.000000 -2.000000 0.000000 -94.104797 8.099960 136.899994 14.560700 -0.347173 0.034433 0.068535 0.074496 -105.241997 -2.000000 2.000000 0.000000 92.095001 -7.760380 138.158997 -19.365499 0.343829 0.045337 -0.100462 -0.102756 -92.390602 -0.916999 7.727858 -44.803715 -1.125754 4.317652 -0.204944 -27.141396 55.007484 22.932209 -6.431159 8.920866 23.432592 -0.310483 -0.563558 -0.352132 -2.428685 -21.959061 -2.765685 
0.041568 43.916763 0.052343 10.677500 -5.096240 -3.635840 -12.856831 1.362044 0.193225 -5.510071 0.583733 0.082811 15.778600 11.855200 -12.873800 12.709700 7.995910 -6.465010 2.000000 -2.000000 0.000000 -93.850899 8.178150 136.938995 14.492400 -0.347214 0.034275 0.068881 0.075054 -105.008003 -2.000000 2.000000 0.000000 92.299500 -7.876930 137.798004 -19.424000 0.343783 0.045469 -0.101058 -0.103359 -92.087898 -0.915914 7.855354 -44.662880 -1.117988 4.329736 -0.205134 -26.882183 55.047585 22.728645 -6.428702 9.027255 23.227039 -0.327886 -0.518277 -0.343851 -2.283660 -21.782015 -2.714514 
0.053527 43.914330 0.034631 10.679400 -5.211400 -3.677010 -12.831279 1.419575 0.095580 -5.499120 0.608389 0.040963 16.019899 11.713200 -12.848900 12.817000 7.945140 -6.457460 2.000000 -2.000000 0.000000 -94.054604 8.069330 136.128998 14.316600 -0.347318 0.033868 0.070629 0.087564 -103.846001 -2.000000 2.000000 0.000000 92.035896 -7.769590 137.847000 -19.316601 0.343868 0.045227 -0.101367 -0.103669 -91.931602 -0.926727 7.980002 -44.620628 -1.113674 4.330841 -0.205492 -27.028761 54.966793 22.813080 -6.391565 9.086125 23.271780 -0.467972 -0.449358 -0.359879 -2.265692 -21.750256 -2.774447 
0.062836 43.915352 0.004984 10.494300 -5.281760 -3.750680 -12.839049 1.436784 -0.041605 -5.502450 0.615765 -0.017831 15.476300 11.705000 -13.072700 12.621000 7.997950 -6.555360 2.000000 -2.000000 0.000000 -94.044800 8.079040 136.098999 14.287300 -0.347335 0.033801 0.070764 0.087770 -103.758003 -2.000000 2.000000 0.000000 91.919998 -7.731920 138.628006 -19.277599 0.343898 0.045139 -0.100731 -0.103029 -92.253899 -0.723504 8.070801 -44.366104 -1.182121 4.312722 -0.214741 -26.263739 55.053711 22.239586 -6.327219 9.336425 23.192694 -0.110078 -0.678521 -0.333472 -2.263741 -21.632055 -2.553146 
0.066438 43.915615 -0.027542 10.379100 -5.427840 -3.629450 -13.030430 1.277668 -0.084383 -5.584470 0.547572 -0.036164 15.049700 12.166600 -13.775000 12.547100 8.212220 -6.925350 2.000000 -2.000000 0.000000 -93.801498 8.157980 136.567993 14.394700 -0.347272 0.034049 0.070287 0.087036 -104.070000 -2.000000 2.000000 0.000000 91.803001 -7.693080 138.755005 -19.121300 0.344021 0.044787 -0.100462 -0.102756 -92.390602 -0.658131 8.205930 -44.255146 -1.222695 4.321782 -0.214873 -26.153450 54.902802 22.084543 -6.148095 9.366436 23.084824 -0.356413 -0.522305 -0.344720 -2.262773 -21.596119 -2.675363 
